<mxfile host="Electron" modified="2024-12-02T19:46:42.513Z" agent="Mozilla/5.0 (Windows NT 10.0; Win64; x64) AppleWebKit/537.36 (KHTML, like Gecko) draw.io/24.6.4 Chrome/124.0.6367.207 Electron/30.0.6 Safari/537.36" etag="WOdgHSGlkqjlsvPofAw7" version="24.6.4" type="device">
  <diagram name="Page-1" id="llepswaBk3yKyfujxE0p">
    <mxGraphModel dx="1518" dy="853" grid="1" gridSize="10" guides="1" tooltips="1" connect="1" arrows="1" fold="1" page="1" pageScale="1" pageWidth="850" pageHeight="1100" math="0" shadow="0">
      <root>
        <mxCell id="0" />
        <mxCell id="1" parent="0" />
        <mxCell id="C19IROjt_DZjLVLMcpU4-1" value="User Interface&lt;div&gt;(Streamlit App)&lt;/div&gt;" style="rounded=1;whiteSpace=wrap;html=1;" vertex="1" parent="1">
          <mxGeometry x="160" y="120" width="170" height="90" as="geometry" />
        </mxCell>
        <mxCell id="C19IROjt_DZjLVLMcpU4-2" value="Persistent Storage&lt;div&gt;(/documents, /data)&lt;/div&gt;" style="rounded=1;whiteSpace=wrap;html=1;" vertex="1" parent="1">
          <mxGeometry x="530" y="120" width="170" height="90" as="geometry" />
        </mxCell>
        <mxCell id="C19IROjt_DZjLVLMcpU4-3" value="Backend Processing" style="rounded=1;whiteSpace=wrap;html=1;" vertex="1" parent="1">
          <mxGeometry x="160" y="320" width="170" height="90" as="geometry" />
        </mxCell>
        <mxCell id="C19IROjt_DZjLVLMcpU4-4" value="Vector Database&lt;div&gt;(FAISS)&lt;/div&gt;" style="rounded=1;whiteSpace=wrap;html=1;" vertex="1" parent="1">
          <mxGeometry x="530" y="320" width="170" height="90" as="geometry" />
        </mxCell>
        <mxCell id="C19IROjt_DZjLVLMcpU4-5" value="Preprocessing &amp;amp; AI Modules" style="rounded=1;whiteSpace=wrap;html=1;" vertex="1" parent="1">
          <mxGeometry x="160" y="520" width="170" height="90" as="geometry" />
        </mxCell>
        <mxCell id="C19IROjt_DZjLVLMcpU4-6" value="" style="endArrow=classic;startArrow=classic;html=1;rounded=0;exitX=1;exitY=0.5;exitDx=0;exitDy=0;entryX=0;entryY=0.5;entryDx=0;entryDy=0;" edge="1" parent="1" source="C19IROjt_DZjLVLMcpU4-3" target="C19IROjt_DZjLVLMcpU4-4">
          <mxGeometry width="50" height="50" relative="1" as="geometry">
            <mxPoint x="400" y="400" as="sourcePoint" />
            <mxPoint x="450" y="350" as="targetPoint" />
          </mxGeometry>
        </mxCell>
        <mxCell id="C19IROjt_DZjLVLMcpU4-7" value="" style="endArrow=classic;html=1;rounded=0;" edge="1" parent="1" source="C19IROjt_DZjLVLMcpU4-1" target="C19IROjt_DZjLVLMcpU4-3">
          <mxGeometry width="50" height="50" relative="1" as="geometry">
            <mxPoint x="240" y="210" as="sourcePoint" />
            <mxPoint x="450" y="350" as="targetPoint" />
          </mxGeometry>
        </mxCell>
        <mxCell id="C19IROjt_DZjLVLMcpU4-8" value="" style="endArrow=classic;html=1;rounded=0;" edge="1" parent="1">
          <mxGeometry width="50" height="50" relative="1" as="geometry">
            <mxPoint x="614.71" y="210" as="sourcePoint" />
            <mxPoint x="614.71" y="320" as="targetPoint" />
          </mxGeometry>
        </mxCell>
        <mxCell id="C19IROjt_DZjLVLMcpU4-9" value="" style="endArrow=classic;html=1;rounded=0;" edge="1" parent="1">
          <mxGeometry width="50" height="50" relative="1" as="geometry">
            <mxPoint x="244.71000000000004" y="410" as="sourcePoint" />
            <mxPoint x="244.71000000000004" y="520" as="targetPoint" />
          </mxGeometry>
        </mxCell>
      </root>
    </mxGraphModel>
  </diagram>
</mxfile>
